HIERARCHY
ROOT Hips
{
	OFFSET 0.0000 0.0000 0.0000
	CHANNELS 6 Xposition Yposition Zposition Zrotation Xrotation Yrotation
	JOINT Ab
	{
		OFFSET -0.0000 8.1305 -0.0000
		CHANNELS 3 Zrotation Xrotation Yrotation
		JOINT Chest
		{
			OFFSET -0.0000 26.2902 -0.0000
			CHANNELS 3 Zrotation Xrotation Yrotation
			JOINT Neck
			{
				OFFSET -0.0000 26.2902 0.0000
				CHANNELS 3 Zrotation Xrotation Yrotation
				JOINT Head
				{
					OFFSET -0.0000 10.8167 0.0000
					CHANNELS 3 Zrotation Xrotation Yrotation
					End Site
					{
						OFFSET -0.0000 16.7167 0.0000
					}
				}
			}
			JOINT LeftCollar
			{
				OFFSET -0.0000 26.2902 0.0000
				CHANNELS 3 Zrotation Xrotation Yrotation
				JOINT LeftShoulder
				{
					OFFSET 19.6667 -0.0000 0.0000
					CHANNELS 3 Zrotation Xrotation Yrotation
					JOINT LeftElbow
					{
						OFFSET 27.2190 0.0000 0.0000
						CHANNELS 3 Zrotation Xrotation Yrotation
						JOINT LeftWrist
						{
							OFFSET 30.7431 0.0000 0.0000
							CHANNELS 3 Zrotation Xrotation Yrotation
							End Site
							{
								OFFSET 0.0000 -14.7500 0.0000
							}
						}
					}
				}
			}
			JOINT RightCollar
			{
				OFFSET -0.0000 26.2902 0.0000
				CHANNELS 3 Zrotation Xrotation Yrotation
				JOINT RightShoulder
				{
					OFFSET -19.6667 0.0000 0.0000
					CHANNELS 3 Zrotation Xrotation Yrotation
					JOINT RightElbow
					{
						OFFSET -27.2190 0.0000 0.0000
						CHANNELS 3 Zrotation Xrotation Yrotation
						JOINT RightWrist
						{
							OFFSET -30.7431 0.0000 0.0000
							CHANNELS 3 Zrotation Xrotation Yrotation
							End Site
							{
								OFFSET -0.0000 -14.7500 0.0000
							}
						}
					}
				}
			}
		}
	}
	JOINT LeftHip
	{
		OFFSET 11.8000 0.0000 0.0000
		CHANNELS 3 Zrotation Xrotation Yrotation
		JOINT LeftKnee
		{
			OFFSET -0.0000 -39.7832 0.0000
			CHANNELS 3 Zrotation Xrotation Yrotation
			JOINT LeftAnkle
			{
				OFFSET -0.0000 -41.7317 0.0000
				CHANNELS 3 Zrotation Xrotation Yrotation
				End Site
				{
					OFFSET -0.0000 -4.9167 16.7167
				}
			}
		}
	}
	JOINT RightHip
	{
		OFFSET -11.8000 0.0000 0.0000
		CHANNELS 3 Zrotation Xrotation Yrotation
		JOINT RightKnee
		{
			OFFSET -0.0000 -39.7832 0.0000
			CHANNELS 3 Zrotation Xrotation Yrotation
			JOINT RightAnkle
			{
				OFFSET -0.0000 -41.7317 0.0000
				CHANNELS 3 Zrotation Xrotation Yrotation
				End Site
				{
					OFFSET -0.0000 -4.9167 16.7167
				}
			}
		}
	}
}
MOTION
Frames: 19
Frame Time: 0.010000
-9.3620 90.6121 72.5924 359.6724 359.3445 177.6698 356.4132 351.5344 358.7574 1.8426 11.3242 358.8381 357.6708 352.7742 1.7896 356.2162 7.1379 2.1344 337.8708 357.1330 14.5220 335.6529 55.6189 325.8882 15.1939 352.9852 310.7467 88.6681 356.2881 348.6913 27.4448 356.0240 343.8239 47.1572 38.1369 354.8762 340.9798 353.8486 35.4498 272.7429 355.8370 10.0352 355.0694 7.0185 1.4522 355.4974 8.5419 356.2665 359.8709 347.2668 19.5431 353.6373 342.2602 1.6604 15.2891 39.2529 3.3381 356.1955 337.4732 322.2772 
-9.3467 90.5532 72.0163 359.6857 359.3224 177.7903 356.4244 351.5250 358.7474 1.8992 11.4048 358.8243 357.6857 352.8082 1.7815 356.2370 7.1054 2.1477 337.8390 357.1195 14.5314 335.8528 55.5788 325.6308 15.2080 352.9833 310.7195 88.6842 356.3039 348.7050 27.4354 356.0395 343.8218 47.1358 38.1047 354.9339 340.8924 353.8374 35.3229 272.7599 355.7718 9.8872 355.1015 7.5692 1.4847 355.4893 8.1910 356.1024 0.2008 347.3537 19.4978 353.6434 341.6524 1.7229 14.7984 37.6222 3.4313 356.0740 337.5247 322.3112 
-9.3283 90.4886 71.4379 359.6891 359.3056 177.9145 356.3536 351.5247 358.7756 2.0587 11.5020 358.8448 357.7653 352.6629 1.7552 356.1804 7.2974 2.1453 337.7624 357.1164 14.5074 336.1039 55.5481 325.3294 15.2003 352.9925 310.7495 88.8047 356.2514 348.7254 27.3606 356.0331 343.7733 47.1841 38.1107 354.9999 340.7501 353.8044 35.1507 272.7377 355.7041 9.7514 355.1235 8.1125 1.5419 355.4968 7.8564 356.0659 0.6305 347.4958 19.2927 353.6434 341.0460 1.8640 14.4646 36.0123 3.1164 356.2176 337.4896 322.6501 
-9.3098 90.4151 70.8574 359.6815 359.2806 178.0338 356.2335 351.4991 358.8346 2.2797 11.6409 358.8842 357.8656 352.4293 1.7027 356.0802 7.5699 2.0937 337.7612 357.1195 14.5348 336.4257 55.7451 324.6876 15.4504 352.8798 311.0734 88.6623 356.1299 348.8205 27.2362 356.0363 343.6699 47.2699 38.1999 355.1225 340.6109 353.7902 34.9465 272.7149 355.7896 9.6337 355.1317 8.6591 1.5802 355.4943 7.5074 356.0158 1.0944 347.6315 19.1240 353.6568 340.5003 1.8959 13.9301 34.4819 3.5151 356.7277 337.2980 322.7176 
-9.2944 90.3332 70.2741 359.6639 359.2341 178.1660 356.2454 351.4564 358.8088 2.3093 11.7380 358.8501 357.9414 352.5502 1.5991 356.0322 7.3136 1.9815 337.7800 357.1331 14.4643 336.4496 55.7271 324.5302 15.5265 352.9072 311.1995 88.5055 356.1029 348.8665 27.2264 356.0395 343.6357 47.3254 38.1556 355.1327 340.5675 353.8084 34.8350 272.7161 355.8377 9.5468 355.1293 9.1890 1.5313 355.4862 7.1533 355.9928 0.7895 347.5563 19.0384 353.6289 339.9975 1.9738 13.4748 32.8437 3.9145 357.0801 337.3897 322.6918 
-9.2871 90.2465 69.6867 359.6200 359.1996 178.3194 356.2000 351.3929 358.8489 2.4153 11.8779 358.8537 358.0590 352.2802 1.6384 355.8634 7.7376 2.0438 337.7071 357.1493 14.3540 336.3575 55.6294 324.5965 15.5077 352.9184 311.3002 88.4987 356.1236 348.8544 27.2490 356.0372 343.7136 47.2074 38.0682 355.1647 340.5823 353.8693 34.7241 272.6826 355.7798 9.4415 355.0914 9.7351 1.4669 355.5046 6.7969 355.9497 0.8892 347.5967 18.9736 353.5464 339.5405 2.0745 13.0976 30.9372 4.2688 357.0972 337.6312 322.6114 
-9.2630 90.1504 69.0932 359.5955 359.1628 178.4557 356.2057 351.3782 358.8233 2.4361 11.9553 358.8671 358.1301 352.2321 1.5679 355.8300 7.7242 1.9683 337.6956 357.1727 14.3053 336.4307 55.5889 324.4735 15.4983 352.9599 311.4428 88.6347 356.1014 348.9167 27.2510 356.0033 343.6139 47.1520 38.2081 355.3300 340.5568 353.8771 34.5426 272.7730 355.8838 9.6058 355.0978 10.2811 1.4789 355.5043 6.4473 355.9167 0.9880 347.6186 18.8450 353.5300 339.1565 2.2435 12.8167 29.0869 4.3025 357.3761 337.6386 322.9243 
-9.2406 90.0496 68.4959 359.5536 359.1141 178.6097 356.1936 351.3384 358.8364 2.4997 12.0375 358.8182 358.0796 352.1933 1.5591 355.8773 7.6930 1.9579 337.6822 357.1686 14.3082 336.3484 55.6014 324.4537 15.5757 352.9523 311.7047 88.7553 356.0269 348.9741 27.2672 356.0202 343.7165 47.1320 38.1905 355.3078 340.5837 353.9087 34.4303 272.7232 355.8111 9.6638 355.0780 10.7824 1.5202 355.5319 6.1925 355.6182 1.0702 347.5814 18.9679 353.5190 338.8292 2.3566 12.4076 27.1917 4.4608 357.2598 338.1268 323.1686 
-9.2170 89.9443 67.8954 359.5001 359.0497 178.7815 356.1702 351.2982 358.8283 2.5491 12.1046 358.8062 358.0826 352.1446 1.4873 355.8743 7.6576 1.8862 337.6914 357.1680 14.2751 336.2963 55.6617 324.4173 15.6155 352.9854 311.9659 88.9602 355.9547 349.1052 27.3312 356.0062 343.7444 47.0178 38.1128 355.3624 340.6276 353.9577 34.3468 272.5651 355.8154 9.6687 355.0571 11.2449 1.5518 355.5534 5.9870 355.3549 1.0913 347.5298 19.0359 353.4831 338.5620 2.5378 12.0200 25.3093 4.8729 357.5736 338.3544 323.2337 
-9.1914 89.8357 67.2964 359.4312 358.9660 178.9552 356.1564 351.2262 358.7983 2.5594 12.1944 358.7863 358.0704 352.0679 1.4406 355.9134 7.6250 1.8381 337.7188 357.1660 14.2631 336.1944 55.6812 324.4189 15.6087 353.0236 312.2560 88.9488 355.9376 349.0202 27.3755 355.9990 343.7572 46.9458 38.1545 355.4787 340.6599 353.9823 34.2112 272.6565 355.8341 9.8748 355.0302 11.6503 1.6332 355.5780 5.8398 355.1559 1.1060 347.5079 19.0015 353.4425 338.3307 2.7172 11.4792 23.1766 5.6139 357.7744 338.8701 323.1414 
-9.1701 89.7248 66.6811 359.3267 358.8769 179.1319 356.1052 351.1318 358.7791 2.5865 12.2963 358.7865 358.0210 351.9620 1.3880 355.9665 7.6100 1.7867 337.7232 357.1724 14.2492 336.0777 55.7066 324.4658 15.6103 353.0783 312.5367 88.7512 356.0438 348.7820 27.4364 355.9994 343.7816 46.8058 38.1638 355.5966 340.7292 354.0344 34.0954 272.6476 355.7504 10.0131 354.9602 12.0382 1.7114 355.6232 5.7225 355.0274 0.9904 347.4489 18.8992 353.3612 338.1747 2.9476 11.0395 21.0370 6.0288 357.9631 339.3036 323.1973 
-9.1462 89.6087 66.0576 359.2166 358.7971 179.3283 356.0371 351.0645 358.7738 2.6422 12.3715 358.7936 357.9497 351.8304 1.3113 356.0270 7.6422 1.7146 337.6561 357.1741 14.1708 335.9289 55.6584 324.6784 15.5112 353.1860 312.7677 88.4970 356.1467 348.4818 27.5062 355.9828 343.7597 46.6155 38.2200 355.7603 340.7808 354.0888 33.9706 272.5839 355.7331 10.1607 354.8914 12.4215 1.7687 355.6651 5.6264 355.0767 0.7283 347.3500 18.6545 353.2720 338.0988 3.3518 10.6579 18.9528 6.3199 358.2773 339.5558 323.3090 
-9.1138 89.4870 65.4504 359.0990 358.7050 179.5786 355.9307 351.0502 358.7608 2.7321 12.3775 358.7734 357.9188 351.6534 1.2179 356.0484 7.7379 1.6271 337.6111 357.1909 14.0973 335.8433 55.6945 324.7848 15.4163 353.2764 313.0824 88.4682 356.1046 348.4293 27.5489 355.9571 343.6630 46.4953 38.3294 355.9543 340.7416 354.0868 33.8541 272.5035 355.8841 10.0450 354.8335 12.7302 1.8280 355.7112 5.6289 355.0297 0.2657 347.2491 18.4523 353.1751 338.0287 3.7897 10.3361 17.0200 6.2151 358.4201 339.8083 323.6176 
-9.0800 89.3626 64.8414 358.9894 358.6193 179.8355 355.8150 351.0734 358.7674 2.8380 12.3225 358.7824 357.9596 351.5319 1.1114 356.0092 7.7733 1.5236 337.5915 357.1969 14.0275 335.7601 55.8492 324.8788 15.3700 353.3400 313.4335 88.5968 356.1279 348.4051 27.5322 355.9539 343.4528 46.4124 38.5854 356.2740 340.6710 354.0694 33.5971 272.6519 355.9667 10.0283 354.7874 13.0316 1.8491 355.7469 5.6580 354.9499 0.2041 347.1612 18.3758 353.1093 337.9454 4.2397 9.9602 15.3352 5.8903 358.6105 339.9239 324.0553 
-9.0338 89.2360 64.2254 358.8743 358.5083 180.0654 355.7437 351.0097 358.7696 2.8770 12.3464 358.7967 357.9385 351.4824 1.0245 356.0739 7.7012 1.4327 337.4327 357.2051 13.7505 335.4919 55.6239 325.5263 15.0241 353.5671 313.6039 88.4230 356.0984 348.0709 27.5625 355.9113 343.3835 46.4298 38.7380 356.3972 340.5143 354.0471 33.4137 272.6386 355.8182 9.8617 354.7360 13.3000 1.8646 355.8048 5.7344 354.5570 1.2601 347.3534 18.4905 353.0815 337.8049 4.7570 9.4303 13.7935 5.8896 358.8198 339.9436 324.3186 
-8.9858 89.1068 63.5882 358.7595 358.4440 180.2883 355.9593 351.0867 358.6619 2.5029 12.1530 358.6923 357.7816 351.2668 1.0271 356.3848 8.0482 1.4438 337.6005 357.2635 13.7288 335.1102 55.6915 325.9735 14.9466 353.6181 313.9023 88.6578 356.2133 348.0510 27.8326 355.8679 343.4546 46.3667 38.8532 356.3163 340.5508 354.0959 33.2708 272.6146 355.7225 9.9957 354.6878 13.6074 1.8562 355.8415 5.8210 354.5657 0.8758 347.3245 18.2705 353.0282 337.7449 5.3320 9.1754 12.3500 5.2503 358.8444 340.1561 324.5991 
-8.9291 88.9807 62.9359 358.6567 358.3967 180.5392 355.9303 351.0715 358.6356 2.5207 12.1907 358.6725 357.6220 351.1593 0.9831 356.5200 7.9959 1.4030 337.6299 357.2760 13.7825 334.8928 55.7701 326.1816 14.8781 353.6810 314.2789 88.5873 356.1965 347.9187 27.8486 355.8670 343.5364 46.4165 39.0096 356.4150 340.3968 354.0751 33.0767 272.5926 355.6796 9.8005 354.6666 13.9288 1.8265 355.8904 5.9455 354.1570 0.8520 347.2850 18.5295 353.0394 337.7508 5.6950 8.7222 11.0829 5.0232 358.9665 340.2163 324.8126 
-8.8599 88.8534 62.2622 358.5909 358.4143 180.8052 355.9514 351.0544 358.5917 2.5042 12.3556 358.6310 357.5372 350.9323 0.9017 356.6438 7.9888 1.3227 337.6830 357.2800 13.7621 334.7021 55.8066 326.4082 14.7287 353.8058 314.5926 88.5394 356.1324 347.6871 27.9301 355.8547 343.5440 46.3633 39.1218 356.6279 340.3049 354.0791 32.9590 272.5012 355.7469 9.5679 354.6862 14.2991 1.8734 355.9364 6.0933 354.1770 1.0531 347.2295 18.3407 353.1039 337.8301 5.9901 8.3552 10.0387 4.6051 358.9859 340.2969 325.0509 
-8.7764 88.7275 61.5832 358.5398 358.3966 181.0398 356.0195 350.9245 358.5374 2.4357 12.6491 358.5706 357.4124 350.6000 0.8616 356.8425 8.0441 1.2890 337.7838 357.3034 13.7697 334.5113 55.7897 326.5995 14.5474 353.9464 314.9096 88.4473 356.0953 347.4368 28.0013 355.8674 343.6156 46.3617 39.2285 356.8738 340.2212 354.0765 32.8052 272.4029 355.7712 9.5211 354.7409 14.5789 2.0164 355.9807 6.3786 353.9955 1.1165 347.1160 18.2577 353.1924 337.8319 6.1253 8.0937 9.3006 4.2578 358.9323 340.3190 325.0458 
